<svg width="126" height="110" viewBox="0 0 126 110" fill="none" xmlns="http://www.w3.org/2000/svg">
<g id="Frame 2577">
<path id="Vector" d="M7.47729 12.8265L17.4811 7.01352C21.5364 4.65788 27.1583 4.98728 33.3727 8.57471C34.9145 9.46326 36.5449 10.6148 38.0839 11.9213L28.0801 17.737C26.541 16.4305 24.9106 15.2818 23.3688 14.3904C17.1545 10.803 11.5325 10.4736 7.47729 12.8292V12.8265Z" fill="#D8DBFF" stroke="black" stroke-width="0.553615" stroke-miterlimit="10"/>
<g id="Vector_2">
<path d="M68.4223 5.44409C82.3789 13.502 94.1322 30.3014 98.7161 46.9265L88.7123 52.7395C84.1284 36.1144 72.3751 19.3149 58.4185 11.2571" fill="#D8DBFF"/>
<path d="M68.4223 5.44409C82.3789 13.502 94.1322 30.3014 98.7161 46.9265L88.7123 52.7395C84.1284 36.1144 72.3751 19.3149 58.4185 11.2571" stroke="black" stroke-width="0.553615" stroke-miterlimit="10"/>
</g>
<path id="Vector_3" d="M119.053 101.685L109.049 107.5C113.052 105.175 115.54 100.22 115.56 93.1727C115.598 79.1136 105.664 61.9017 93.4262 54.8376C91.7958 53.8965 90.1626 53.1629 88.7122 52.7422L98.716 46.9292C100.166 47.3499 101.8 48.0835 103.43 49.0246C115.665 56.0888 125.602 73.3007 125.564 87.3597C125.544 94.41 123.056 99.3621 119.053 101.687V101.685Z" fill="#D8DBFF" stroke="black" stroke-width="0.553615" stroke-miterlimit="10"/>
<g id="Vector_4">
<path d="M58.4184 11.2571C49.3973 6.0503 41.248 5.5825 35.3687 8.9983L45.3725 3.18534C51.2519 -0.230467 59.4011 0.237338 68.4223 5.44409" fill="#D8DBFF"/>
<path d="M58.4184 11.2571C49.3973 6.0503 41.248 5.5825 35.3687 8.9983L45.3725 3.18534C51.2519 -0.230467 59.4011 0.237338 68.4223 5.44409" stroke="black" stroke-width="0.553615" stroke-miterlimit="10"/>
</g>
<path id="Vector_5" d="M58.4183 11.257C72.375 19.3149 84.1282 36.1143 88.7122 52.7394C90.1626 53.1602 91.7958 53.8937 93.4262 54.8349C105.661 61.899 115.599 79.1109 115.56 93.17C115.518 107.334 105.517 113.034 93.2823 105.97C87.1205 102.413 81.6896 96.356 77.7146 89.5742C72.2643 91.0164 65.4576 89.9036 58.208 85.7183C50.9584 81.533 44.2596 74.8481 38.8342 67.1279C34.743 69.251 29.2982 69.0268 23.225 65.5224C10.896 58.4057 0.96136 41.1938 1.00011 27.0295C1.03887 12.9705 11.0427 7.27098 23.3689 14.3877C24.9108 15.2763 26.5412 16.4278 28.0802 17.7343C32.7417 6.44886 44.553 3.25174 58.4183 11.257Z" fill="#AFB3F5" stroke="black" stroke-width="0.553615" stroke-miterlimit="10"/>
<path id="Vector_6" d="M72.818 65.7799L40.163 46.9265L35.3687 49.6946L68.0237 68.548L72.818 65.7799Z" fill="#EE484F" stroke="black" stroke-width="0.553615" stroke-miterlimit="10"/>
<path id="Vector_7" d="M72.8177 103.498V65.791L68.0234 68.5591V106.266L72.8177 103.498Z" fill="#B80000" stroke="black" stroke-width="0.553615" stroke-miterlimit="10"/>
<path id="Vector_8" d="M68.0237 106.266L35.3687 87.4123V49.7056L68.0237 68.5589V106.266Z" fill="#E60000" stroke="black" stroke-width="0.553615" stroke-miterlimit="10"/>
<path id="Vector_9" d="M54.9528 79.9026L62.5484 93.0592L59.2931 94.8613L51.6975 81.7046L44.1019 86.0892L40.8467 80.5309L48.5087 76.1851L40.8467 62.9121L44.1019 61.1101L51.6975 74.2668L59.2931 69.8821L62.5484 75.4404L54.9528 79.9026Z" fill="white" stroke="black" stroke-width="0.553615" stroke-miterlimit="10"/>
</g>
</svg>
