<svg width="94" height="110" viewBox="0 0 94 110" fill="none" xmlns="http://www.w3.org/2000/svg">
<g id="Frame 2577">
<path id="Vector" d="M29.3839 1.60742C22.8406 3.08764 13.4931 8.76343 9.30714 12.9494C5.12119 17.1353 22.2254 13.9226 22.2254 13.9226L29.3839 1.60742Z" fill="#47CF41" stroke="black" stroke-width="0.720887" stroke-miterlimit="10"/>
<path id="Vector_2" d="M52.5651 6.19949C54.5139 7.32408 56.429 8.59524 58.3057 9.99857C69.876 18.642 79.7978 32.1875 85.7355 46.6028C85.8316 46.8215 85.9181 47.0354 86.007 47.2516L93.0669 46.622L91.9039 55.3015L90.7649 63.8224L89.3808 74.208C89.3544 74.4074 89.1093 74.4867 88.9699 74.3426L74.9679 59.7782L71.9473 56.6352L64.7577 49.1548C64.7577 49.1548 60.6727 29.7581 52.5651 25.0771C45.1111 20.7734 38.4958 21.0954 34.3507 25.1012L13.9399 9.15273C25.354 0.343487 37.7677 -2.34302 52.5651 6.19949Z" fill="url(#paint0_linear_210_10303)" stroke="black" stroke-width="0.720887" stroke-miterlimit="10"/>
<path id="Vector_3" d="M34.3482 25.0987C31.5103 27.8405 29.8307 32.3076 29.8307 38.1997C29.8307 52.6991 40.0072 70.332 52.5627 77.5793C59.1708 81.3928 65.1181 81.5779 69.2776 78.776L83.6353 96.6372C76.4961 103.303 65.2311 103.762 52.5603 96.4473C42.1915 90.4616 29.8908 82.0176 22.8957 70.3705C15.3288 57.7718 13.481 41.7104 13.481 28.7608C13.481 20.9248 15.2135 14.557 18.2556 9.89282L34.3482 25.0987Z" fill="url(#paint1_linear_210_10303)" stroke="black" stroke-width="0.720887" stroke-miterlimit="10"/>
<path id="Vector_4" d="M83.6376 96.642C78.2093 101.792 69.179 106.643 62.7415 108.385C56.304 110.127 65.5193 95.2483 65.5193 95.2483L83.6376 96.6396V96.642Z" fill="#2B9124" stroke="black" stroke-width="0.240296" stroke-miterlimit="10"/>
<path id="Vector_5" d="M53.072 55.835L57.9524 52.615C58.4811 53.629 58.9448 54.6647 59.3533 55.722L53.2258 56.2747C52.7019 56.3228 52.6347 56.1233 53.072 55.835Z" fill="#35A72E" stroke="black" stroke-width="0.480592" stroke-miterlimit="10"/>
<path id="Vector_6" d="M40.0817 13.4061C42.0305 14.5306 43.9457 15.8018 45.8224 17.2051C57.3926 25.8486 67.3144 39.3941 73.2521 53.8094C73.3482 54.0281 73.4348 54.2419 73.5237 54.4582L80.5835 53.831L79.4229 62.5105L78.2839 71.0314L76.8998 81.417C76.8734 81.6164 76.6283 81.6957 76.4889 81.5515L62.4869 66.9872L59.4664 63.8441L52.6227 56.7242C52.4834 56.58 52.5747 56.3373 52.7741 56.3181L59.3534 55.7245L59.3294 55.6669C55.3068 45.9709 48.1893 36.9671 40.0817 32.2861C27.5262 25.0364 17.3473 30.9116 17.3473 45.4111C17.3473 59.9105 27.5238 77.5434 40.0793 84.7931C46.685 88.6066 52.6348 88.7916 56.7943 85.9898L71.1519 103.851C64.0128 110.519 52.7477 110.976 40.0769 103.661C18.4983 91.197 1 60.8909 1 35.9698C1 11.0488 18.4983 0.946728 40.0817 13.4061Z" fill="url(#paint2_linear_210_10303)" stroke="black" stroke-width="0.720887" stroke-miterlimit="10"/>
<path id="Vector_7" d="M73.9945 54.1843L86.0069 47.2493L91.9831 46.7183C92.2402 46.6966 92.3483 47.0379 92.1248 47.1652L80.5834 53.8286L74.0642 54.4077C73.9368 54.4197 73.8816 54.2491 73.9945 54.1843Z" fill="#47CF41" stroke="black" stroke-width="0.480592" stroke-miterlimit="10"/>
<path id="Vector_8" d="M92.6441 46.8646L80.5837 53.8284L76.8975 81.4264C76.8711 81.6234 77.0825 81.7652 77.2556 81.6667L89.3785 74.4169L93.0021 47.1049C93.0286 46.9079 92.8171 46.7661 92.6441 46.8646Z" fill="url(#paint3_linear_210_10303)" stroke="black" stroke-width="0.720887" stroke-miterlimit="10"/>
<path id="Vector_9" d="M69.28 78.7783L56.7966 85.9872L71.1543 103.848L83.6377 96.6419L69.28 78.7783Z" fill="url(#paint4_linear_210_10303)" stroke="black" stroke-width="0.720887" stroke-miterlimit="10"/>
</g>
<defs>
<linearGradient id="paint0_linear_210_10303" x1="35.9006" y1="8.40061" x2="71.4908" y2="47.3958" gradientUnits="userSpaceOnUse">
<stop stop-color="#47CF41"/>
<stop offset="1" stop-color="#38A630"/>
</linearGradient>
<linearGradient id="paint1_linear_210_10303" x1="60.9874" y1="89.2241" x2="24.4745" y2="42.7557" gradientUnits="userSpaceOnUse">
<stop stop-color="#47CF41"/>
<stop offset="1" stop-color="#2B9124"/>
</linearGradient>
<linearGradient id="paint2_linear_210_10303" x1="71.9233" y1="98.973" x2="-142.709" y2="-190.706" gradientUnits="userSpaceOnUse">
<stop stop-color="#47CF41"/>
<stop offset="1" stop-color="#38A630"/>
</linearGradient>
<linearGradient id="paint3_linear_210_10303" x1="137.402" y1="127.772" x2="62.9507" y2="37.6301" gradientUnits="userSpaceOnUse">
<stop stop-color="#47CF41"/>
<stop offset="1" stop-color="#2B9124"/>
</linearGradient>
<linearGradient id="paint4_linear_210_10303" x1="130.921" y1="115.714" x2="46.2789" y2="81.6907" gradientUnits="userSpaceOnUse">
<stop stop-color="#47CF41"/>
<stop offset="1" stop-color="#38A630"/>
</linearGradient>
</defs>
</svg>
