<svg width="92" height="110" viewBox="0 0 92 110" fill="none" xmlns="http://www.w3.org/2000/svg">
<g id="Frame 2577">
<path id="Vector" d="M22.5759 40.3022L22.5327 55.0789L22.5759 40.3022Z" fill="#D40909" stroke="black" stroke-width="0.719994" stroke-miterlimit="10"/>
<path id="Vector_2" d="M22.5759 40.3022L22.5327 55.0789L58.6092 75.9083L58.65 61.1317L22.5759 40.3022Z" fill="white" stroke="black" stroke-width="0.719994" stroke-miterlimit="10"/>
<path id="Vector_3" d="M36.6591 10.5042C36.2079 10.2954 35.7735 10.1562 35.3271 9.96899C35.7735 10.1562 36.2079 10.2978 36.6591 10.5042Z" fill="white" stroke="black" stroke-width="0.719994" stroke-miterlimit="10"/>
<g id="Vector_4">
<path d="M51.3541 6.43134C40.3502 0.0785931 30.3807 -0.511802 23.1831 3.67136L12.5488 9.85131C12.5704 9.83931 12.5968 9.82971 12.6208 9.81771C13.1056 9.53931 13.6312 9.33051 14.14 9.09531C14.5744 8.89371 14.9896 8.65852 15.4432 8.48812C15.976 8.28892 16.5472 8.16412 17.1016 8.01052C17.5696 7.88092 18.0184 7.71292 18.5032 7.61693C19.0816 7.49933 19.6936 7.46093 20.2936 7.39133C20.7904 7.33373 21.2703 7.23773 21.7815 7.21133C22.4103 7.18013 23.0703 7.23053 23.7183 7.24973C24.2319 7.26413 24.7287 7.23773 25.2543 7.28573C25.9527 7.34813 26.6799 7.49693 27.3975 7.61453C27.9015 7.69852 28.3911 7.73933 28.9047 7.84972C29.6559 8.01292 30.4335 8.26732 31.2015 8.49292C31.7079 8.64172 32.1999 8.74492 32.7134 8.92011C33.5702 9.21291 34.4486 9.59931 35.3246 9.96651C35.771 10.1537 36.2054 10.2953 36.6566 10.5017C37.9934 11.1161 39.347 11.8169 40.7174 12.6089" fill="#DD5555"/>
<path d="M51.3541 6.43134C40.3502 0.0785931 30.3807 -0.511802 23.1831 3.67136L12.5488 9.85131C12.5704 9.83931 12.5968 9.82971 12.6208 9.81771C13.1056 9.53931 13.6312 9.33051 14.14 9.09531C14.5744 8.89371 14.9896 8.65852 15.4432 8.48812C15.976 8.28892 16.5472 8.16412 17.1016 8.01052C17.5696 7.88092 18.0184 7.71293 18.5032 7.61693C19.0816 7.49933 19.6936 7.46093 20.2936 7.39133C20.7904 7.33373 21.2703 7.23773 21.7815 7.21133C22.4103 7.18013 23.0703 7.23053 23.7183 7.24973C24.2319 7.26413 24.7287 7.23773 25.2543 7.28573C25.9527 7.34813 26.6799 7.49693 27.3975 7.61453C27.9015 7.69853 28.3911 7.73933 28.9047 7.84972C29.6559 8.01292 30.4335 8.26732 31.2015 8.49292C31.7079 8.64172 32.1999 8.74492 32.7134 8.92011C33.5702 9.21291 34.4486 9.59931 35.3246 9.96651C35.771 10.1537 36.2054 10.2953 36.6566 10.5017C37.9934 11.1161 39.347 11.8169 40.7174 12.6089" stroke="black" stroke-width="0.719994" stroke-miterlimit="10"/>
</g>
<path id="Vector_5" d="M80.1828 80.9626C80.178 82.5274 80.1036 84.0346 79.9668 85.4794C80.106 84.0322 80.1804 82.5274 80.1828 80.9626Z" fill="white" stroke="black" stroke-width="0.719994" stroke-miterlimit="10"/>
<path id="Vector_6" d="M79.5683 88.2009C79.6355 87.7953 79.6931 87.3825 79.7483 86.9673C79.6931 87.3849 79.6331 87.7977 79.5659 88.2033C79.5659 88.2033 79.5659 88.2033 79.5659 88.2009H79.5683Z" fill="white" stroke="black" stroke-width="0.719994" stroke-miterlimit="10"/>
<path id="Vector_7" d="M73.8732 77.3196C73.9332 56.207 59.075 30.4697 40.7007 19.8617C22.3025 9.23944 7.34583 17.7618 7.28583 38.8768C7.22583 60.0182 22.0841 85.7532 40.4823 96.3779C58.8566 106.986 73.8132 98.4634 73.8732 77.322V77.3196ZM40.4967 91.6451C34.456 88.1579 28.8472 82.8012 24.1985 76.494C16.4513 65.9821 11.373 52.8231 11.4042 41.2528C11.457 22.7393 24.5753 15.2922 40.6863 24.5945C56.7974 33.8968 69.8077 56.4302 69.7549 74.9437C69.7021 93.4571 56.6078 100.947 40.4967 91.6451Z" fill="white" stroke="black" stroke-width="0.719994" stroke-miterlimit="10"/>
<g id="Vector_8">
<path d="M40.72 12.6113C62.5862 25.2352 80.2548 55.8373 80.1828 80.9627C80.178 82.5275 80.1036 84.0347 79.9668 85.4795C79.9164 85.9979 79.8156 86.4659 79.7508 86.9675C79.6956 87.3851 79.638 87.7955 79.5708 88.2011C79.494 88.6739 79.4508 89.1803 79.3572 89.6411C79.2516 90.1618 79.0956 90.6298 78.9732 91.1314C78.7812 91.9066 78.6108 92.6986 78.3756 93.4282C78.2124 93.9346 77.9988 94.3858 77.814 94.8682C77.562 95.5282 77.3316 96.2146 77.0412 96.8314C76.8204 97.3042 76.5492 97.7146 76.3069 98.161C75.9997 98.7274 75.7117 99.3178 75.3709 99.841C75.0973 100.261 74.7781 100.621 74.4829 101.012C74.1205 101.495 73.7797 102.003 73.3885 102.445C73.0621 102.812 72.6925 103.117 72.3445 103.455C71.9365 103.851 71.5477 104.276 71.1133 104.631C70.7365 104.939 70.3213 105.183 69.9253 105.459C69.4957 105.759 69.0877 106.093 68.6365 106.357L79.2708 100.177C86.3772 96.0466 90.7835 87.2651 90.8195 74.7828C90.8915 49.6574 73.2229 19.0553 51.3567 6.4314" fill="#DD5555"/>
<path d="M40.72 12.6113C62.5862 25.2352 80.2548 55.8374 80.1828 80.9627C80.178 82.5275 80.1036 84.0347 79.9668 85.4795C79.9164 85.9979 79.8156 86.4659 79.7508 86.9675C79.6956 87.3851 79.638 87.7955 79.5708 88.2011C79.494 88.6739 79.4508 89.1803 79.3572 89.641C79.2516 90.1618 79.0956 90.6298 78.9732 91.1314C78.7812 91.9066 78.6108 92.6986 78.3756 93.4282C78.2124 93.9346 77.9988 94.3858 77.814 94.8682C77.562 95.5282 77.3316 96.2146 77.0412 96.8314C76.8204 97.3042 76.5492 97.7146 76.3069 98.161C75.9997 98.7274 75.7117 99.3178 75.3709 99.841C75.0973 100.261 74.7781 100.621 74.4829 101.012C74.1205 101.495 73.7797 102.003 73.3885 102.445C73.0621 102.812 72.6925 103.117 72.3445 103.455C71.9365 103.851 71.5477 104.276 71.1133 104.631C70.7365 104.939 70.3213 105.183 69.9253 105.459C69.4957 105.759 69.0877 106.093 68.6365 106.357L79.2708 100.177C86.3772 96.0466 90.7835 87.2651 90.8195 74.7828C90.8915 49.6574 73.2229 19.0553 51.3567 6.4314" stroke="black" stroke-width="0.719994" stroke-miterlimit="10"/>
</g>
<path id="Vector_9" d="M72.342 103.458C72.69 103.119 73.0596 102.815 73.386 102.447C73.7772 102.006 74.1204 101.497 74.4804 101.015C74.7756 100.621 75.0948 100.261 75.3684 99.8434C75.7092 99.3202 75.9971 98.7298 76.3043 98.1634C76.5467 97.717 76.8179 97.3043 77.0387 96.8339C77.3291 96.2171 77.5595 95.5307 77.8115 94.8707C77.9963 94.3883 78.2099 93.9371 78.3731 93.4307C78.6083 92.7035 78.7787 91.9091 78.9707 91.1339C79.0955 90.6323 79.2515 90.1643 79.3547 89.6435C79.4459 89.1851 79.4891 88.6787 79.5659 88.2059C79.6331 87.7979 79.6931 87.3875 79.7483 86.9699C79.8155 86.4683 79.9163 86.0004 79.9643 85.482C80.1035 84.0348 80.1779 82.53 80.1803 80.9652C80.2523 55.8398 62.5837 25.2377 40.7175 12.6138C39.3471 11.8218 37.9911 11.121 36.6567 10.5066C36.2055 10.2978 35.7711 10.1586 35.3247 9.97143C34.4487 9.60423 33.5703 9.21783 32.7135 8.92504C32.1999 8.74984 31.7079 8.64664 31.2015 8.49784C30.4312 8.27224 29.656 8.02024 28.9048 7.85465C28.3912 7.74185 27.9016 7.70345 27.3976 7.61945C26.68 7.49945 25.9528 7.35305 25.2544 7.29065C24.7288 7.24265 24.232 7.26905 23.7184 7.25465C23.0704 7.23545 22.4104 7.18505 21.7816 7.21625C21.2704 7.24025 20.7904 7.33865 20.2936 7.39625C19.6937 7.46585 19.0817 7.50425 18.5033 7.62185C18.0209 7.72025 17.5697 7.88585 17.1017 8.01544C16.5449 8.16904 15.9761 8.29384 15.4433 8.49304C14.9921 8.66104 14.5745 8.89864 14.1401 9.10023C13.6313 9.33543 13.1057 9.54183 12.6209 9.82263C5.47378 13.9314 1.03622 22.7249 1.00022 35.248C0.92822 60.3758 18.5969 90.9755 40.4631 103.599C52.1558 110.351 62.6509 110.54 69.9228 105.462C70.3188 105.186 70.734 104.941 71.1108 104.634C71.5452 104.279 71.934 103.854 72.342 103.458ZM40.4823 96.3755C22.084 85.7532 7.22576 60.0182 7.28576 38.8768C7.34576 17.7618 22.3 9.23943 40.7007 19.8617C59.0749 30.4696 73.9332 56.207 73.8732 77.3196C73.8132 98.461 58.8565 106.983 40.4823 96.3755Z" fill="#D40909" stroke="black" stroke-width="0.719994" stroke-miterlimit="10"/>
<path id="Vector_10" d="M69.7547 74.9435C69.8075 56.4301 56.7972 33.8967 40.6861 24.5944C24.5751 15.2921 11.4568 22.7416 11.404 41.2526C11.3704 52.8229 16.4511 65.982 24.1983 76.4939C28.847 82.8011 34.4558 88.1554 40.4965 91.645C56.6076 100.947 69.7019 93.457 69.7547 74.9435ZM58.6091 75.9083L22.5327 55.0813L22.5735 40.3046L58.65 61.1341L58.6091 75.9107V75.9083Z" fill="#D40909" stroke="black" stroke-width="0.719994" stroke-miterlimit="10"/>
</g>
</svg>
